
_______ Visit us at our Semi Public Bittorrent Community ________
  
http://p2pdl.com  _____________________________  http://p2pdl.com



To The Wonder 2012 BRRip 480p x264 AAC - VYTO


Genre: Drama | Romanc
Plot: After visiting Mont Saint-Michel, Marina and Neil come to Oklahoma, where
problems arise. Marina meets a priest and fellow exile, who is struggling with
his vocation, while Neil renews his ties with a childhood friend, Jane.   
Director: Terrence Malick
Stars: Ben Affleck, Olga Kurylenko, Rachel McAdams.
Rated: R for some sexuality/nudity.


Info: 
http://www.imdb.com/title/tt1595656/

Trailer:


Format                         : MPEG-4
File size                      : 356 MiB
Duration                       : 1h 52mn
Overall bit rate mode          : Variable
Overall bit rate               : 442 Kbps
Source                         : LIMITED.720p.BluRay.x264-GECKOS

Video
Format                         : AVC
Bit rate                       : 399 Kbps
Width                          : 720 pixels
Height                         : 304 pixels
Display aspect ratio           : 2.35:1
Frame rate mode                : Constant
Frame rate                     : 23.976 fps
Stream size                    : 321 MiB (90%)
Writing library                : x264 core 130 r2273

Audio
Format                         : AAC
Bit rate mode                  : Variable
Bit rate                       : 40.0 Kbps
Channel(s)                     : 2 channels
Channel positions              : Front: L R
Sampling rate                  : 48.0 KHz
Stream size                    : 32.2 MiB (9%)
Language                       : English

Subtitle                       : Yes(English)

 
http://ultraimg.com/images/uypQm.png 
http://ultraimg.com/images/v1HfN.png 
http://ultraimg.com/images/5o1SI.png 
http://ultraimg.com/images/LcRle.png 
http://ultraimg.com/images/s5MfD.png 
http://ultraimg.com/images/Rmz1U.png 
http://ultraimg.com/images/hXDkm.png 
http://ultraimg.com/images/QiPVF.png 
http://ultraimg.com/images/sdLMo.png


----------------------------------------------------------------------------------------------------


Encoded using revolutionary 10bit encoding, which enables us to provide you more crispier 
and sharper images at small sizes, just make sure you follow our instructions without a fault.
Recommend to you to use latest version of VLC player. Install K-Lite Codec Pack or shark007 codecs
in case of any kind of problem in playback (For non-VLC Media Player users). Alternatively, install
Core AVC codecs, the fastest decoder that there is coupled with Community Center Codec Pack and play
on Windows Media Player Classic. Check sample to be sure.
Enjoy!

Encoder Notes:Looking For Early Access To Anything You Can Provide DVDScr, R5, DVDR, BluRay, Direct
Audio, Music Releases and Seedboxes. We require dedicated servers, so as to do more 
and fast releases of movies.
If You Got anything to offer please contact us at "contact@p2pdl.com".

Face book Fan Page:   
http://fbl.me/BC